HIERARCHY
ROOT Hips
{
    OFFSET 0.000000 0.000000 0.000000
    CHANNELS 6 Xposition Yposition Zposition Zrotation Xrotation Yrotation
    JOINT Spine
    {
        OFFSET -0.000000 14.517291 0.000000
        CHANNELS 3 Zrotation Xrotation Yrotation
        JOINT Spine1
        {
            OFFSET -0.000000 37.558300 0.000000
            CHANNELS 3 Zrotation Xrotation Yrotation
            JOINT Neck
            {
                OFFSET -0.000000 37.404057 3.400369
                CHANNELS 3 Zrotation Xrotation Yrotation
                JOINT Head
                {
                    OFFSET -0.000000 24.785618 -3.540803
                    CHANNELS 3 Zrotation Xrotation Yrotation
                    End Site
                    {
                        OFFSET -0.000000 35.408028 0.000000
                    }
                }
            }
            JOINT LeftShoulder
            {
                OFFSET 6.992933 33.973492 -0.192664
                CHANNELS 3 Zrotation Xrotation Yrotation
                JOINT LeftArm
                {
                    OFFSET 21.527611 0.000000 0.000000
                    CHANNELS 3 Zrotation Xrotation Yrotation
                    JOINT LeftForeArm
                    {
                        OFFSET 56.353916 0.000000 0.000000
                        CHANNELS 3 Zrotation Xrotation Yrotation
                        JOINT LeftHand
                        {
                            OFFSET 47.774071 0.000000 0.000000
                            CHANNELS 3 Zrotation Xrotation Yrotation
                            End Site
                            {
                                OFFSET 26.556021 0.000000 0.000000
                            }
                        }
                    }
                }
            }
            JOINT RightShoulder
            {
                OFFSET -7.065357 33.973492 -0.192664
                CHANNELS 3 Zrotation Xrotation Yrotation
                JOINT RightArm
                {
                    OFFSET -21.527611 0.000000 0.000000
                    CHANNELS 3 Zrotation Xrotation Yrotation
                    JOINT RightForeArm
                    {
                        OFFSET -56.353916 0.000000 0.000000
                        CHANNELS 3 Zrotation Xrotation Yrotation
                        JOINT RightHand
                        {
                            OFFSET -47.774071 0.000000 0.000000
                            CHANNELS 3 Zrotation Xrotation Yrotation
                            End Site
                            {
                                OFFSET -26.556021 0.000000 0.000000
                            }
                        }
                    }
                }
            }
        }
    }
    JOINT LeftUpLeg
    {
        OFFSET 17.704014 0.000000 0.000000
        CHANNELS 3 Zrotation Xrotation Yrotation
        JOINT LeftLeg
        {
            OFFSET -0.000000 -81.181816 0.000000
            CHANNELS 3 Zrotation Xrotation Yrotation
            JOINT LeftFoot
            {
                OFFSET -0.000000 -62.821102 0.000000
                CHANNELS 3 Zrotation Xrotation Yrotation
                JOINT LeftToeBase
                {
                    OFFSET -0.000000 -11.507608 26.556021
                    CHANNELS 3 Zrotation Xrotation Yrotation
                    End Site
                    {
                        OFFSET -0.000000 0.000000 7.081605
                    }
                }
            }
        }
    }
    JOINT RightUpLeg
    {
        OFFSET -17.704014 0.000000 0.000000
        CHANNELS 3 Zrotation Xrotation Yrotation
        JOINT RightLeg
        {
            OFFSET -0.000000 -81.181816 0.000000
            CHANNELS 3 Zrotation Xrotation Yrotation
            JOINT RightFoot
            {
                OFFSET -0.000000 -62.821102 0.000000
                CHANNELS 3 Zrotation Xrotation Yrotation
                JOINT RightToeBase
                {
                    OFFSET -0.000000 -11.507608 26.556021
                    CHANNELS 3 Zrotation Xrotation Yrotation
                    End Site
                    {
                        OFFSET -0.000000 0.000000 7.081605
                    }
                }
            }
        }
    }
}
MOTION
Frames:    10
Frame Time:    0.008333
-5.939746    164.528915    -8.953363    0.978743    -0.254944    -30.079029    3.315175    -2.982950    0.821287    -1.648468    2.214248    0.274567    16.697554    1.993373    13.185964    -9.641626    4.682226    10.558383    -0.041786    10.466176    -11.608911    -41.530643    12.919482    -36.442360    35.448757    -47.317734    -53.478054    -18.020479    -29.533913    -26.593893    -5.755527    5.838793    -4.539231    37.764973    11.760436    74.435616    4.554079    -9.498728    98.489914    8.656805    -13.290272    18.628378    3.708407    -4.600234    -2.995667    -9.654462    11.410658    -10.002658    1.611104    -6.167128    33.871929    0.000000    0.000000    0.000000    -2.406541    0.143253    1.504042    6.286492    9.905257    -1.965263    -2.332545    -8.593123    -16.008947    0.000000    0.000000    0.000000    
-5.930106    164.525909    -8.931980    0.983818    -0.258976    -30.091217    3.305426    -2.979998    0.823011    -1.644847    2.201396    0.275101    16.691879    1.992604    13.188593    -9.625470    4.694964    10.564480    -0.040320    10.465594    -11.598869    -41.529640    12.918010    -36.432503    35.426983    -47.306492    -53.493874    -18.030760    -29.518274    -26.622477    -5.755263    5.857678    -4.532018    37.758587    11.745064    74.445770    4.568244    -9.493377    98.477875    8.658366    -13.299964    18.624531    3.695929    -4.604127    -2.979849    -9.653649    11.437572    -9.980025    1.617442    -6.183308    33.835419    0.000000    0.000000    0.000000    -2.417323    0.134073    1.502458    6.277471    9.929052    -1.927798    -2.313628    -8.605172    -16.037210    0.000000    0.000000    0.000000    
-5.918612    164.525925    -8.906326    0.980627    -0.265617    -30.101133    3.304272    -2.968250    0.825372    -1.638133    2.189854    0.275653    16.681889    1.991375    13.183588    -9.614745    4.699435    10.561856    -0.049924    10.465624    -11.584264    -41.513470    12.940280    -36.438393    35.429543    -47.316315    -53.488983    -18.024899    -29.531044    -26.633196    -5.759967    5.854952    -4.533060    37.752018    11.758361    74.446159    4.571038    -9.495648    98.485428    8.640853    -13.309579    18.617378    3.688194    -4.597675    -2.978813    -9.655852    11.455343    -9.986962    1.617240    -6.195167    33.858589    0.000000    0.000000    0.000000    -2.430753    0.136886    1.526832    6.291522    9.944108    -1.945179    -2.324292    -8.609724    -16.037954    0.000000    0.000000    0.000000    
-5.907432    164.525360    -8.882489    0.981257    -0.272608    -30.108812    3.295519    -2.958322    0.824969    -1.632323    2.175572    0.275416    16.679050    1.990461    13.183408    -9.600084    4.708627    10.564153    -0.054572    10.475171    -11.581604    -41.505508    12.945065    -36.438873    35.456024    -47.321320    -53.470238    -18.044596    -29.525669    -26.641663    -5.754705    5.861100    -4.524817    37.772942    11.740720    74.434319    4.605194    -9.447299    98.491844    8.635162    -13.301625    18.623459    3.679000    -4.595171    -2.991121    -9.670145    11.473240    -9.956978    1.626504    -6.208685    33.858868    0.000000    0.000000    0.000000    -2.441755    0.136617    1.525601    6.284766    9.971542    -1.944963    -2.307227    -8.626125    -16.027830    0.000000    0.000000    0.000000    
-5.896824    164.525299    -8.858134    0.980006    -0.281085    -30.116030    3.288921    -2.953296    0.824464    -1.626067    2.174353    0.275150    16.662203    1.988381    13.181088    -9.574019    4.712271    10.566596    -0.056549    10.470564    -11.588466    -41.492348    12.964914    -36.423882    35.494507    -47.339230    -53.434280    -18.042957    -29.540205    -26.659803    -5.758622    5.862076    -4.512746    37.781128    11.738116    74.421684    4.608198    -9.435760    98.497879    8.649305    -13.290510    18.643520    3.672483    -4.589887    -2.989010    -9.679370    11.497935    -9.974047    1.663438    -6.209966    33.871861    0.000000    0.000000    0.000000    -2.453507    0.145279    1.544809    6.287438    9.975733    -1.932265    -2.305777    -8.625194    -16.054073    0.000000    0.000000    0.000000    
-5.885788    164.524002    -8.836208    0.975614    -0.285028    -30.112576    3.285271    -2.941611    0.817005    -1.622026    2.160578    0.272652    16.646240    1.981302    13.173030    -9.543605    4.717624    10.562759    -0.059481    10.477108    -11.584765    -41.483185    12.967841    -36.422455    35.508972    -47.338226    -53.425522    -18.035316    -29.538420    -26.646738    -5.749882    5.867039    -4.509426    37.779221    11.739070    74.415070    4.605299    -9.424386    98.504768    8.644920    -13.277677    18.641113    3.670177    -4.591962    -2.994736    -9.705474    11.607594    -9.998869    1.726777    -6.323127    33.893902    0.000000    0.000000    0.000000    -2.457508    0.149067    1.555524    6.285845    9.988670    -1.942322    -2.280363    -8.644799    -16.059996    0.000000    0.000000    0.000000    
-5.872170    164.523773    -8.814466    0.970098    -0.288040    -30.117613    3.286927    -2.935144    0.814426    -1.623245    2.164191    0.271920    16.639257    1.981391    13.174632    -9.527215    4.690441    10.564754    -0.055449    10.463741    -11.587901    -41.487938    12.967568    -36.410042    35.500843    -47.353188    -53.438225    -18.019907    -29.561491    -26.638987    -5.750810    5.854155    -4.502281    37.786507    11.748990    74.398232    4.609237    -9.423320    98.525452    8.655128    -13.280751    18.650501    3.667257    -4.585231    -2.998537    -9.713833    11.609268    -9.958241    1.716065    -6.323488    33.880413    0.000000    0.000000    0.000000    -2.466578    0.150012    1.569599    6.295237    10.004398    -1.955444    -2.294890    -8.635175    -16.050268    0.000000    0.000000    0.000000    
-5.856649    164.521866    -8.793158    0.967713    -0.289893    -30.117994    3.275519    -2.916086    0.813072    -1.622911    2.154685    0.271560    16.698334    2.138499    13.095113    -9.753934    4.426295    10.452144    -0.023980    10.458692    -11.578267    -41.517780    12.961085    -36.424255    35.492607    -47.343742    -53.464569    -18.006163    -29.551512    -26.608015    -5.725767    5.841571    -4.525006    37.775261    11.753952    74.393158    4.606349    -9.401414    98.547234    8.649089    -13.259986    18.635183    3.664333    -4.594827    -3.009213    -9.727041    11.642200    -9.961885    1.723920    -6.345616    33.892624    0.000000    0.000000    0.000000    -2.473387    0.150247    1.556551    6.294671    10.014852    -1.972768    -2.295283    -8.627584    -16.028988    0.000000    0.000000    0.000000    
-5.841656    164.521286    -8.767374    0.967940    -0.291327    -30.118820    3.278006    -2.915211    0.811361    -1.638958    2.155942    0.271233    16.722212    2.136702    13.090092    -9.775317    4.412537    10.440083    -0.006068    10.462557    -11.578794    -41.515244    12.961810    -36.432232    35.505421    -47.349541    -53.454147    -17.997150    -29.557634    -26.611753    -5.713611    5.839532    -4.527272    37.781982    11.755780    74.383537    4.628795    -9.385067    98.573685    8.653325    -13.270990    18.636597    3.658814    -4.605348    -3.029706    -9.741080    11.679387    -9.984005    1.751268    -6.352640    33.924801    0.000000    0.000000    0.000000    -2.485302    0.151991    1.551581    6.296561    10.025134    -1.984614    -2.281681    -8.643061    -16.012070    0.000000    0.000000    0.000000    
-5.825859    164.519577    -8.741190    0.965126    -0.302863    -30.128897    3.260923    -2.892230    0.818172    -1.619363    2.144814    0.273423    16.708672    2.130951    13.079300    -9.769817    4.397807    10.429027    -0.007291    10.459182    -11.595469    -41.525822    12.941950    -36.420322    35.479919    -47.350834    -53.472397    -18.019051    -29.558834    -26.624893    -5.723044    5.825598    -4.531909    37.789730    11.766997    74.365494    4.616412    -9.369397    98.584236    8.643678    -13.245335    18.618746    3.653585    -4.602107    -3.049451    -9.764656    11.707917    -10.000370    1.771723    -6.368124    33.973625    0.000000    0.000000    0.000000    -2.503331    0.165904    1.552938    6.302370    10.034639    -1.965633    -2.266222    -8.662251    -16.018028    0.000000    0.000000    0.000000    
